<svg width="165" height="41" viewBox="0 0 165 41" fill="none" xmlns="http://www.w3.org/2000/svg">
<g style="mix-blend-mode:luminosity" clip-path="url(#clip0_2241_29307)">
<path d="M26.5392 20.5272C27.8857 19.399 28.742 17.7045 28.742 15.8099C28.742 13.9154 27.8857 12.2209 26.5392 11.0927C26.6935 11.018 26.842 10.9368 26.9835 10.8489C27.8767 10.2933 28.9308 9.97241 30.0599 9.97241C33.2824 9.97241 35.8947 12.586 35.8947 15.8099C35.8947 19.0339 33.2824 21.6474 30.0599 21.6474C28.9308 21.6474 27.8767 21.3266 26.9835 20.771C26.842 20.6831 26.6935 20.6019 26.5392 20.5272Z" fill="url(#paint0_linear_2241_29307)"/>
<path d="M24.9187 16.729C25.521 15.0784 25.4158 13.1826 24.4689 11.5419C23.5221 9.9011 21.9336 8.86198 20.2037 8.55856C20.3 8.41665 20.388 8.27208 20.4665 8.12515C20.9624 7.1972 21.715 6.39195 22.6929 5.82712C25.4836 4.21513 29.0522 5.17176 30.6633 7.96381C32.2745 10.7559 31.3184 14.3261 28.5276 15.938C27.5498 16.5029 26.4764 16.7523 25.4253 16.718C25.2589 16.7125 25.0897 16.7166 24.9187 16.729Z" fill="url(#paint1_linear_2241_29307)"/>
<path d="M21.6168 14.2502C21.3136 12.5195 20.275 10.9303 18.635 9.98297C16.995 9.03568 15.1001 8.93038 13.4503 9.53298C13.4628 9.36192 13.4668 9.19267 13.4613 9.02616C13.427 7.97448 13.6764 6.90063 14.2409 5.9223C15.8522 3.13026 19.4206 2.17363 22.2114 3.78562C25.002 5.39761 25.9583 8.96779 24.347 11.7599C23.7824 12.7382 22.9776 13.4912 22.0501 13.9873C21.9033 14.0658 21.7588 14.1538 21.6168 14.2502Z" fill="url(#paint2_linear_2241_29307)"/>
<path d="M17.5183 13.7553C16.3907 12.4081 14.697 11.5514 12.8033 11.5514C10.9095 11.5514 9.21589 12.4081 8.0883 13.7553C8.0136 13.6009 7.93248 13.4523 7.84456 13.3107C7.28923 12.4172 6.96851 11.3625 6.96851 10.2328C6.96851 7.00882 9.58081 4.39526 12.8033 4.39526C16.0257 4.39526 18.638 7.00882 18.638 10.2328C18.638 11.3625 18.3173 12.4172 17.762 13.3107C17.674 13.4523 17.5929 13.6009 17.5183 13.7553Z" fill="url(#paint3_linear_2241_29307)"/>
<path d="M13.721 15.3767C12.0712 14.7741 10.1763 14.8794 8.53632 15.8266C6.89634 16.774 5.85772 18.3631 5.55446 20.0939C5.41261 19.9975 5.26811 19.9095 5.12124 19.8309C4.19374 19.3348 3.38887 18.5818 2.82431 17.6036C1.21308 14.8115 2.16925 11.2413 4.95998 9.62931C7.7507 8.01731 11.3192 8.97394 12.9304 11.766C13.495 12.7443 13.7443 13.8182 13.7099 14.8698C13.7045 15.0363 13.7085 15.2056 13.721 15.3767Z" fill="url(#paint4_linear_2241_29307)"/>
<path d="M11.2423 18.6804C9.51237 18.9838 7.92396 20.023 6.97712 21.6637C6.03028 23.3045 5.92502 25.2003 6.52735 26.8509C6.35635 26.8384 6.18715 26.8344 6.02071 26.8398C4.96954 26.8742 3.8962 26.6247 2.91835 26.0599C0.127631 24.4478 -0.828539 20.8777 0.782682 18.0856C2.3939 15.2936 5.96238 14.3369 8.7531 15.949C9.73095 16.5138 10.4835 17.319 10.9794 18.2469C11.0579 18.3939 11.146 18.5385 11.2423 18.6804Z" fill="url(#paint5_linear_2241_29307)"/>
<path d="M10.7466 22.7813C9.40009 23.9095 8.54379 25.604 8.54379 27.4985C8.54379 29.3931 9.40009 31.0876 10.7466 32.2158C10.5923 32.2904 10.4438 32.3717 10.3024 32.4596C9.4092 33.0151 8.35499 33.336 7.22586 33.336C4.00342 33.336 1.39111 30.7225 1.39111 27.4985C1.39111 24.2745 4.00342 21.6609 7.22586 21.6609C8.35499 21.6609 9.4092 21.9818 10.3024 22.5375C10.4438 22.6254 10.5923 22.7066 10.7466 22.7813Z" fill="url(#paint6_linear_2241_29307)"/>
<path d="M12.3668 26.5805C11.7644 28.2311 11.8697 30.1269 12.8165 31.7677C13.7634 33.4085 15.3518 34.4475 17.0817 34.7509C16.9854 34.8929 16.8974 35.0375 16.8189 35.1845C16.3231 36.1124 15.5704 36.9176 14.5926 37.4824C11.8018 39.0945 8.23338 38.1378 6.62216 35.3458C5.01093 32.5537 5.96711 28.9835 8.75782 27.3715C9.73568 26.8067 10.809 26.5572 11.8602 26.5916C12.0266 26.597 12.1958 26.593 12.3668 26.5805Z" fill="url(#paint7_linear_2241_29307)"/>
<path d="M15.6689 29.0604C15.9722 30.7911 17.0108 32.3803 18.6508 33.3275C20.2907 34.2748 22.1858 34.3801 23.8355 33.7775C23.823 33.9486 23.819 34.1178 23.8244 34.2844C23.8588 35.3361 23.6095 36.4099 23.0449 37.3882C21.4337 40.1803 17.8652 41.1369 15.0745 39.5249C12.2837 37.9129 11.3276 34.3428 12.9389 31.5507C13.5034 30.5724 14.3083 29.8194 15.2357 29.3233C15.3826 29.2448 15.5271 29.1566 15.6689 29.0604Z" fill="url(#paint8_linear_2241_29307)"/>
<path d="M19.7678 29.5563C20.8954 30.9034 22.5891 31.7601 24.4828 31.7601C26.3765 31.7601 28.0702 30.9034 29.1978 29.5563C29.2725 29.7107 29.3536 29.8592 29.4416 30.0007C29.9968 30.8943 30.3176 31.9491 30.3176 33.0787C30.3176 36.3027 27.7053 38.9162 24.4828 38.9162C21.2604 38.9162 18.6481 36.3027 18.6481 33.0787C18.6481 31.9491 18.9688 30.8943 19.5241 30.0007C19.6121 29.8592 19.6932 29.7107 19.7678 29.5563Z" fill="url(#paint9_linear_2241_29307)"/>
<path d="M23.5652 27.9354C25.215 28.538 27.1099 28.4326 28.7499 27.4854C30.3898 26.5381 31.4285 24.9489 31.7317 23.2182C31.8735 23.3144 32.018 23.4026 32.1649 23.4811C33.0925 23.9772 33.8973 24.7302 34.4619 25.7085C36.0732 28.5006 35.1169 32.0707 32.3263 33.6828C29.5355 35.2948 25.9671 34.3382 24.3558 31.5461C23.7912 30.5678 23.5419 29.4939 23.5762 28.4422C23.5817 28.2758 23.5777 28.1065 23.5652 27.9354Z" fill="url(#paint10_linear_2241_29307)"/>
<path d="M30.3126 21.6422C30.3114 21.6442 30.3102 21.6463 30.309 21.6483C29.3623 23.2891 27.7739 24.3282 26.0439 24.6316C26.1401 24.7736 26.2282 24.9182 26.3068 25.065C26.8026 25.9931 27.5553 26.7983 28.5331 27.3631C31.3238 28.9752 34.8923 28.0185 36.5035 25.2265C37.8848 22.8327 37.3791 19.8671 35.4482 18.0538C34.5999 20.0906 32.6314 21.5434 30.3126 21.6422Z" fill="url(#paint11_linear_2241_29307)"/>
<path d="M50.9672 10.6179V28.0526H47.1051V10.6179H50.9672ZM47.7173 28.0526L47.788 24.6364H57.7963V28.0526H47.7173ZM58.4008 22.1389C58.4008 20.8981 58.6598 19.8143 59.1779 18.8876C59.696 17.9452 60.426 17.2148 61.368 16.6965C62.3099 16.1782 63.4088 15.919 64.6649 15.919C65.9208 15.919 67.0119 16.1782 67.9381 16.6965C68.8801 17.2148 69.6101 17.9452 70.1282 18.8876C70.6463 19.8143 70.9053 20.8981 70.9053 22.1389C70.9053 23.3798 70.6463 24.4636 70.1282 25.3903C69.6101 26.317 68.8801 27.0395 67.9381 27.5578C67.0119 28.0762 65.9208 28.3353 64.6649 28.3353C63.4088 28.3353 62.3099 28.0762 61.368 27.5578C60.426 27.0395 59.696 26.317 59.1779 25.3903C58.6598 24.4636 58.4008 23.3798 58.4008 22.1389ZM62.0509 22.1154C62.0509 22.7123 62.1608 23.2385 62.3805 23.694C62.6003 24.1338 62.9065 24.4793 63.2989 24.7307C63.6915 24.9662 64.1468 25.084 64.6649 25.084C65.183 25.084 65.6382 24.9662 66.0307 24.7307C66.4232 24.4793 66.7214 24.1338 66.9256 23.694C67.1454 23.2385 67.2553 22.7123 67.2553 22.1154C67.2553 21.5185 67.1454 21.0002 66.9256 20.5604C66.7214 20.1206 66.4232 19.7829 66.0307 19.5473C65.6382 19.296 65.183 19.1703 64.6649 19.1703C64.1468 19.1703 63.6915 19.296 63.2989 19.5473C62.9065 19.7829 62.6003 20.1206 62.3805 20.5604C62.1608 21.0002 62.0509 21.5185 62.0509 22.1154ZM71.7243 21.9505C71.7243 20.741 71.9676 19.6809 72.4543 18.7698C72.941 17.8589 73.6082 17.152 74.456 16.6494C75.3037 16.131 76.2771 15.8719 77.376 15.8719C78.3023 15.8719 79.1187 16.0604 79.8251 16.4373C80.5474 16.8143 81.034 17.3091 81.2852 17.9216L80.9319 18.1573L81.2146 16.2725H84.4878V27.2987C84.4878 28.6809 84.2209 29.8747 83.6872 30.8799C83.1534 31.9008 82.392 32.6862 81.4029 33.2359C80.4296 33.7856 79.2678 34.0605 77.9176 34.0605C76.7873 34.0605 75.7669 33.8328 74.8563 33.3772C73.9614 32.9375 73.2314 32.3092 72.6662 31.4924C72.1167 30.6757 71.7871 29.7333 71.6772 28.6652H75.3508C75.3822 29.3406 75.6491 29.8589 76.1515 30.2202C76.6695 30.5815 77.3289 30.7621 78.1296 30.7621C79.0245 30.7621 79.7153 30.5108 80.2019 30.0081C80.6886 29.5212 80.9319 28.8694 80.9319 28.0526V25.5552L81.2616 25.8615C81.0104 26.4741 80.5238 26.9688 79.8016 27.3458C79.0794 27.7228 78.2474 27.9113 77.3054 27.9113C76.2221 27.9113 75.2566 27.66 74.4088 27.1573C73.5768 26.6548 72.9174 25.9558 72.4307 25.0605C71.9597 24.1652 71.7243 23.1285 71.7243 21.9505ZM75.3979 21.8562C75.3979 22.4217 75.5156 22.9243 75.7511 23.3641C75.9867 23.804 76.3006 24.1494 76.6932 24.4007C77.0856 24.6364 77.5173 24.7542 77.9884 24.7542C78.5535 24.7542 79.048 24.6364 79.472 24.4007C79.9115 24.1494 80.2491 23.804 80.4845 23.3641C80.7357 22.9243 80.8613 22.4217 80.8613 21.8562C80.8613 21.2751 80.7357 20.7803 80.4845 20.3719C80.2333 19.9479 79.8879 19.618 79.4483 19.3824C79.0245 19.1468 78.5299 19.029 77.9647 19.029C77.4938 19.029 77.0621 19.1468 76.6695 19.3824C76.2771 19.618 75.9631 19.9479 75.7276 20.3719C75.5078 20.7961 75.3979 21.2908 75.3979 21.8562ZM85.7804 22.1389C85.7804 20.8981 86.0394 19.8143 86.5575 18.8876C87.0755 17.9452 87.8055 17.2148 88.7475 16.6965C89.6894 16.1782 90.7885 15.919 92.0444 15.919C93.3004 15.919 94.3914 16.1782 95.3178 16.6965C96.2597 17.2148 96.9897 17.9452 97.5077 18.8876C98.0258 19.8143 98.2849 20.8981 98.2849 22.1389C98.2849 23.3798 98.0258 24.4636 97.5077 25.3903C96.9897 26.317 96.2597 27.0395 95.3178 27.5578C94.3914 28.0762 93.3004 28.3353 92.0444 28.3353C90.7885 28.3353 89.6894 28.0762 88.7475 27.5578C87.8055 27.0395 87.0755 26.317 86.5575 25.3903C86.0394 24.4636 85.7804 23.3798 85.7804 22.1389ZM89.4304 22.1154C89.4304 22.7123 89.5403 23.2385 89.7601 23.694C89.9799 24.1338 90.286 24.4793 90.6786 24.7307C91.071 24.9662 91.5263 25.084 92.0444 25.084C92.5625 25.084 93.0178 24.9662 93.4102 24.7307C93.8027 24.4793 94.101 24.1338 94.3051 23.694C94.5249 23.2385 94.6348 22.7123 94.6348 22.1154C94.6348 21.5185 94.5249 21.0002 94.3051 20.5604C94.101 20.1206 93.8027 19.7829 93.4102 19.5473C93.0178 19.296 92.5625 19.1703 92.0444 19.1703C91.5263 19.1703 91.071 19.296 90.6786 19.5473C90.286 19.7829 89.9799 20.1206 89.7601 20.5604C89.5403 21.0002 89.4304 21.5185 89.4304 22.1154ZM99.8103 28.0526V16.2725H103.46V28.0526H99.8103ZM101.647 14.4347C101.066 14.4347 100.572 14.2383 100.163 13.8457C99.7711 13.4373 99.5748 12.9425 99.5748 12.3614C99.5748 11.7803 99.7711 11.2933 100.163 10.9006C100.572 10.508 101.066 10.3116 101.647 10.3116C102.212 10.3116 102.691 10.508 103.084 10.9006C103.492 11.2933 103.696 11.7803 103.696 12.3614C103.696 12.9425 103.492 13.4373 103.084 13.8457C102.691 14.2383 102.212 14.4347 101.647 14.4347ZM105.821 33.7072V16.2725H109.142L109.329 17.7096C109.659 17.1599 110.185 16.7201 110.907 16.3902C111.629 16.0604 112.407 15.8955 113.239 15.8955C114.337 15.8955 115.295 16.1389 116.111 16.6258C116.928 17.1128 117.572 17.8117 118.043 18.7228C118.513 19.618 118.764 20.7018 118.797 21.9741C118.828 23.2149 118.623 24.3223 118.184 25.296C117.744 26.2541 117.109 27.0081 116.276 27.5578C115.444 28.1077 114.44 28.3825 113.262 28.3825C112.446 28.3825 111.684 28.2411 110.978 27.9584C110.272 27.6757 109.745 27.3144 109.4 26.8746V33.7072H105.821ZM109.47 22.1626C109.47 22.7437 109.588 23.262 109.824 23.7175C110.075 24.1573 110.413 24.5029 110.837 24.7542C111.276 24.9898 111.778 25.1075 112.343 25.1075C112.925 25.1075 113.42 24.982 113.827 24.7307C114.251 24.4793 114.574 24.1338 114.793 23.694C115.029 23.2541 115.146 22.7437 115.146 22.1626C115.146 21.5813 115.029 21.0709 114.793 20.6311C114.574 20.1913 114.251 19.8457 113.827 19.5944C113.42 19.3432 112.925 19.2175 112.343 19.2175C111.778 19.2175 111.276 19.3432 110.837 19.5944C110.413 19.8301 110.075 20.1678 109.824 20.6076C109.588 21.0474 109.47 21.5657 109.47 22.1626ZM119.418 24.3301H122.692C122.692 24.7384 122.825 25.0605 123.092 25.296C123.375 25.5317 123.782 25.6495 124.316 25.6495C124.63 25.6495 124.89 25.6102 125.094 25.5317C125.314 25.4531 125.479 25.3432 125.588 25.2018C125.714 25.0447 125.776 24.872 125.776 24.6835C125.776 24.4793 125.706 24.3065 125.565 24.1652C125.439 24.0238 125.219 23.9139 124.905 23.8354L122.833 23.2934C121.671 22.9793 120.847 22.5159 120.36 21.9034C119.873 21.2908 119.63 20.5918 119.63 19.8065C119.63 19.0211 119.827 18.3379 120.219 17.7568C120.627 17.1599 121.177 16.7044 121.867 16.3902C122.558 16.0604 123.335 15.8955 124.199 15.8955C125.501 15.8955 126.569 16.2567 127.402 16.9793C128.249 17.686 128.697 18.652 128.744 19.8771H125.47C125.486 19.4687 125.369 19.1468 125.117 18.9111C124.866 18.6599 124.536 18.5343 124.129 18.5343C123.767 18.5343 123.469 18.6285 123.233 18.817C123.013 18.9897 122.903 19.2332 122.903 19.5473C122.903 19.8457 123.013 20.0656 123.233 20.2071C123.453 20.3327 123.751 20.4426 124.129 20.5369L126.224 21.0552C127.198 21.2908 127.935 21.6914 128.438 22.2567C128.94 22.8222 129.191 23.5448 129.191 24.4244C129.191 25.6337 128.744 26.5919 127.849 27.2987C126.954 28.0055 125.793 28.3589 124.364 28.3589C122.888 28.3589 121.702 27.9898 120.808 27.2516C119.928 26.4977 119.465 25.5238 119.418 24.3301ZM134.978 28.3589C133.596 28.3589 132.528 27.9269 131.775 27.0631C131.022 26.1992 130.644 25.0683 130.644 23.6704V16.2725H134.271V22.351C134.271 23.4505 134.467 24.1887 134.86 24.5657C135.253 24.9427 135.77 25.1312 136.414 25.1312C137.247 25.1312 137.819 24.8955 138.133 24.4244C138.447 23.9532 138.604 23.2778 138.604 22.3981V16.2725H142.231V28.0526H138.817L138.581 26.7333C138.219 27.2201 137.709 27.6129 137.05 27.9113C136.39 28.2097 135.7 28.3589 134.978 28.3589ZM148.217 28.0526H144.567V16.2725H147.959L148.217 18.2986L147.817 17.8745C148.131 17.2776 148.602 16.7986 149.23 16.4373C149.874 16.0604 150.564 15.8719 151.303 15.8719C152.464 15.8719 153.374 16.131 154.034 16.6494C154.71 17.1677 155.196 17.851 155.494 18.6991H154.929C155.117 17.851 155.572 17.1677 156.295 16.6494C157.017 16.131 157.88 15.8719 158.885 15.8719C160.408 15.8719 161.531 16.2802 162.253 17.097C162.975 17.9138 163.336 18.9976 163.336 20.3484V28.0526H159.804V21.2437C159.804 20.5054 159.623 19.9557 159.262 19.5944C158.917 19.2332 158.454 19.0526 157.873 19.0526C157.528 19.0526 157.198 19.1311 156.884 19.2881C156.57 19.4295 156.31 19.6886 156.106 20.0656C155.902 20.427 155.8 20.9453 155.8 21.6206V28.0526H152.221V21.2437C152.221 20.5054 152.048 19.9636 151.703 19.618C151.357 19.2567 150.894 19.0761 150.313 19.0761C149.968 19.0761 149.63 19.1547 149.3 19.3118C148.986 19.4531 148.728 19.7123 148.524 20.0893C148.32 20.4505 148.217 20.9609 148.217 21.6206V28.0526Z" fill="#1B3D5B"/>
</g>
<defs>
<linearGradient id="paint0_linear_2241_29307" x1="27.2697" y1="9.97241" x2="27.2697" y2="21.6474" gradientUnits="userSpaceOnUse">
<stop stop-color="#25136D"/>
<stop offset="1" stop-color="#3D9BA2"/>
</linearGradient>
<linearGradient id="paint1_linear_2241_29307" x1="20.2765" y1="7.22288" x2="26.1155" y2="17.3314" gradientUnits="userSpaceOnUse">
<stop stop-color="#25136D"/>
<stop offset="1" stop-color="#3D9BA2"/>
</linearGradient>
<linearGradient id="paint2_linear_2241_29307" x1="12.8459" y1="8.33985" x2="22.9544" y2="14.1732" gradientUnits="userSpaceOnUse">
<stop stop-color="#25136D"/>
<stop offset="1" stop-color="#3D9BA2"/>
</linearGradient>
<linearGradient id="paint3_linear_2241_29307" x1="6.96851" y1="13.0243" x2="18.638" y2="13.0243" gradientUnits="userSpaceOnUse">
<stop stop-color="#25136D"/>
<stop offset="1" stop-color="#3D9BA2"/>
</linearGradient>
<linearGradient id="paint4_linear_2241_29307" x1="4.21942" y1="20.021" x2="14.3279" y2="14.1877" gradientUnits="userSpaceOnUse">
<stop stop-color="#25136D"/>
<stop offset="1" stop-color="#3D9BA2"/>
</linearGradient>
<linearGradient id="paint5_linear_2241_29307" x1="5.33475" y1="27.4556" x2="11.1737" y2="17.3471" gradientUnits="userSpaceOnUse">
<stop stop-color="#25136D"/>
<stop offset="1" stop-color="#3D9BA2"/>
</linearGradient>
<linearGradient id="paint6_linear_2241_29307" x1="10.0161" y1="33.336" x2="10.0161" y2="21.6609" gradientUnits="userSpaceOnUse">
<stop stop-color="#25136D"/>
<stop offset="1" stop-color="#3D9BA2"/>
</linearGradient>
<linearGradient id="paint7_linear_2241_29307" x1="17.0089" y1="36.0867" x2="11.17" y2="25.9782" gradientUnits="userSpaceOnUse">
<stop stop-color="#25136D"/>
<stop offset="1" stop-color="#3D9BA2"/>
</linearGradient>
<linearGradient id="paint8_linear_2241_29307" x1="24.44" y1="34.9707" x2="14.3315" y2="29.1373" gradientUnits="userSpaceOnUse">
<stop stop-color="#25136D"/>
<stop offset="1" stop-color="#3D9BA2"/>
</linearGradient>
<linearGradient id="paint9_linear_2241_29307" x1="30.3176" y1="30.2872" x2="18.6481" y2="30.2872" gradientUnits="userSpaceOnUse">
<stop stop-color="#25136D"/>
<stop offset="1" stop-color="#3D9BA2"/>
</linearGradient>
<linearGradient id="paint10_linear_2241_29307" x1="33.0668" y1="23.291" x2="22.9583" y2="29.1244" gradientUnits="userSpaceOnUse">
<stop stop-color="#25136D"/>
<stop offset="1" stop-color="#3D9BA2"/>
</linearGradient>
<linearGradient id="paint11_linear_2241_29307" x1="31.9515" y1="15.8564" x2="26.1126" y2="25.965" gradientUnits="userSpaceOnUse">
<stop stop-color="#25136D"/>
<stop offset="1" stop-color="#3D9BA2"/>
</linearGradient>
<clipPath id="clip0_2241_29307">
<rect width="165" height="41" fill="white"/>
</clipPath>
</defs>
</svg>
